<?xml version="1.0" encoding="utf-8"?>
<!-- Generator: Adobe Illustrator 24.1.2, SVG Export Plug-In . SVG Version: 6.00 Build 0)  -->
<svg version="1.1" id="레이어_1" xmlns="http://www.w3.org/2000/svg" xmlns:xlink="http://www.w3.org/1999/xlink" x="0px"
	 y="0px" viewBox="0 0 50 50" style="enable-background:new 0 0 50 50;" xml:space="preserve">
<style type="text/css">
	.st0{fill:#C4498C;}
	.st1{fill:#FF6633;}
	.st2{fill:none;}
	.st3{fill:#E61F19;}
	.st4{fill:#602C8D;}
	.st5{fill:#F9D700;}
	.st6{fill:#66CC33;}
	.st7{fill:#003399;}
	.st8{fill:#0066CC;}
</style>
<path class="st0" d="M25,0C18.1,0,11.85,2.8,7.32,7.32L25,25V0z"/>
<path class="st1" d="M25,25h25c0-6.9-2.8-13.15-7.32-17.68L25,25L25,25z"/>
<polygon class="st2" points="25,25 25,25 25,25 "/>
<polygon class="st2" points="25,25 25,25 25,25 "/>
<path class="st3" d="M42.68,7.32C38.15,2.8,31.9,0,25,0v25L42.68,7.32z"/>
<path class="st4" d="M25,25L7.32,7.32C2.8,11.85,0,18.1,0,25L25,25L25,25z"/>
<path class="st5" d="M25,25l17.68,17.68C47.2,38.15,50,31.9,50,25H25z"/>
<path class="st6" d="M25,25v25c6.9,0,13.15-2.8,17.68-7.32L25,25L25,25z"/>
<path class="st7" d="M0,25c0,6.9,2.8,13.15,7.32,17.68L25,25H0z"/>
<path class="st8" d="M25,25L7.32,42.68C11.85,47.2,18.1,50,25,50V25L25,25z"/>
</svg>
