<?xml version="1.0" encoding="utf-8"?>
<!-- Generator: Adobe Illustrator 24.1.2, SVG Export Plug-In . SVG Version: 6.00 Build 0)  -->
<svg version="1.1" id="레이어_1" xmlns="http://www.w3.org/2000/svg" xmlns:xlink="http://www.w3.org/1999/xlink" x="0px"
	 y="0px" viewBox="0 0 32 32" style="enable-background:new 0 0 32 32;" xml:space="preserve">
<style type="text/css">
	.st0{fill:#040000;}
	.st1{fill:#FFFFFF;}
</style>
<rect class="st0" width="32" height="32"/>
<rect x="-49.18" y="22.5" style="fill:none;" width="40.32" height="35.69"/>
<g>
	<path class="st1" d="M23.1,17.35c0,1.18,0.23,1.92,0.85,3.1l-0.11,0.22c-1.35,0.06-2.08,0.22-3.1,0.79l-0.17-0.11
		c-0.34-1.13-0.68-1.97-3.72-4.34l-0.4,0.23c0.51,3.83,1.07,4.57,1.92,5.41v0.17c-1.02,0.62-1.52,1.18-2.26,2.31h-0.23
		c-0.73-1.13-1.24-1.69-2.25-2.31v-0.17c0.85-0.84,1.41-1.58,1.92-5.41l-0.4-0.23c-3.04,2.37-3.38,3.21-3.72,4.34l-0.17,0.11
		c-1.02-0.57-1.75-0.73-3.1-0.79l-0.11-0.22c0.62-1.19,0.85-1.92,0.85-3.1l0.17-0.06c1.18,0.28,2.09,0.4,5.69-1.07
		c-0.06-0.17-0.06-0.28,0-0.45c-3.61-1.47-4.51-1.35-5.69-1.07L8.9,14.65c0-1.18-0.23-1.92-0.85-3.1l0.11-0.22
		c1.35-0.06,2.09-0.23,3.1-0.79l0.17,0.11c0.34,1.13,0.68,1.97,3.72,4.34l0.4-0.22c-0.51-3.83-1.07-4.57-1.92-5.41V9.18
		c1.02-0.62,1.52-1.18,2.25-2.31h0.23c0.73,1.13,1.24,1.69,2.26,2.31v0.17c-0.85,0.85-1.41,1.58-1.92,5.41l0.4,0.22
		c3.04-2.37,3.38-3.21,3.72-4.34l0.17-0.11c1.02,0.56,1.75,0.73,3.1,0.79l0.11,0.22c-0.62,1.18-0.85,1.92-0.85,3.1l-0.17,0.06
		c-1.18-0.28-2.09-0.39-5.7,1.07c0.06,0.17,0.06,0.28,0,0.45c3.61,1.47,4.51,1.35,5.7,1.07L23.1,17.35z"/>
</g>
</svg>
